<?xml version="1.0" encoding="utf-8"?>
<!-- Generator: Adobe Illustrator 22.0.1, SVG Export Plug-In . SVG Version: 6.00 Build 0)  -->
<svg version="1.1" id="Layer_1" xmlns="http://www.w3.org/2000/svg" xmlns:xlink="http://www.w3.org/1999/xlink" x="0px" y="0px"
	 viewBox="0 0 644 133.3" style="enable-background:new 0 0 644 133.3;" xml:space="preserve">
<style type="text/css">
	.st0{clip-path:url(#SVGID_2_);}
	.st1{fill:#FFFFFF;}
</style>
<g>
	<defs>
		<path id="SVGID_1_" d="M148.7,94.9c2.7,1.4,7.1,2.9,11.5,2.9c4.1,0,6.1-1.4,6.1-3.7c0-2.2-2-3.5-7-5.2c-7.5-2.8-12.5-7-12.5-13.8
			c0-8.1,6.7-14.3,17.9-14.3c5.3,0,9.1,1,12,2.3l-2.5,9.9c-1.9-0.9-5.2-2.2-9.6-2.2c-3.6,0-5.6,1.4-5.6,3.4c0,2.3,2.4,3.2,8,5.4
			c8,3.1,11.5,7.4,11.5,13.8c0,7.9-5.9,14.6-18.9,14.6c-5.3,0-10.5-1.4-13.1-2.8L148.7,94.9z M187.8,70.2c-3.7,0-6-2.6-6-5.8
			c0-3.4,2.4-5.8,6.1-5.8s6,2.4,6.1,5.8C194,67.6,191.6,70.2,187.8,70.2L187.8,70.2z M181.9,107.1V73.7h11.9v33.4H181.9z
			 M198.6,58.8h11.9v48.3h-11.9V58.8z M225,73.7l3.5,14.2c0.7,2.6,1.1,5.2,1.5,7.9h0.2c0.4-2.7,0.8-5.1,1.5-7.9l3.2-14.2h12.5
			l-11.8,33.4h-11.9l-11.5-33.4H225z M257.6,94.6c0.4,2.6,4.2,4.1,8.4,4.1c3,0,5.9-0.3,8.8-1.3l1.5,8.2c-3.9,1.6-8.1,2.1-12.1,2.1
			c-11.4,0-17.9-6.5-17.9-17.1c0-7.7,4.9-17.8,16.8-17.8c10.5,0,15,7.9,15,17.1c0,2-0.3,3.8-0.5,4.6H257.6z M267.1,86.4
			c0-1.9-0.9-5.4-4.6-5.4c-3.5,0-4.9,3.3-5.1,5.4H267.1z M280.9,84.9c0-5.3-0.1-8.5-0.3-11.3h10.2l0.5,6h0.3
			c1.7-5.1,5.8-6.8,8.6-6.8c1.1,0,1.5,0,2.4,0.2v11.5c-0.9-0.2-1.8-0.3-3-0.3c-3.5,0-5.9,1.5-6.5,4.2c-0.1,0.5-0.1,1.3-0.1,2.1v16.5
			h-11.9V84.9z M329.3,106.3c-1.9,1-5.3,1.4-8.9,1.4c-10.8,0-17.6-6.5-17.6-17.1c0-9.5,6.4-17.7,19.1-17.7c2.3,0,5.1,0.3,7.4,1.2
			l-1.6,9c-1.1-0.5-2.7-0.8-5.1-0.8c-4.4,0-7.6,3.1-7.5,7.9c0,5.4,3.6,8,7.8,8c2,0,3.7-0.3,5.2-0.9L329.3,106.3z M331.6,84.9
			c0-5.3-0.1-8.5-0.3-11.3h10.2l0.5,6h0.3c1.7-5.1,5.8-6.8,8.6-6.8c1.1,0,1.5,0,2.4,0.2v11.5c-0.9-0.2-1.8-0.3-3-0.3
			c-3.5,0-5.9,1.5-6.5,4.2c-0.1,0.5-0.1,1.3-0.1,2.1v16.5h-11.9V84.9z M383.5,98.9c0,3.3,0.2,6.5,0.5,8.2h-10.7l-0.6-2.9h-0.3
			c-2.2,2.6-5.5,3.7-9,3.7c-6.7,0-10.7-5-10.7-10.5c0-9,7.8-13,18.9-13V84c0-1.4-1-2.9-5.3-2.9c-3.4,0-7,1.2-9.2,2.4l-2-7.7
			c2-1.2,6.7-3.1,13.4-3.1c11.1,0,15,6.4,15,14.7V98.9z M372,91.8c-4.9,0-7.6,1.4-7.6,4.3c0,2.1,1.3,3.2,3.4,3.2
			c1.7,0,3.5-1.2,4.1-3.1c0.1-0.5,0.1-1.2,0.1-1.8V91.8z M397.2,73.7l3.9,15c0.5,1.8,1,4.3,1.4,6h0.3c0.4-1.8,0.8-4.2,1.2-5.9
			l3-15.1h12.7l-6.9,21.3c-4.9,14-8,19.1-11.5,22.3c-3.8,3.4-7.8,4.6-10.8,4.9l-2.4-10.3c1.2-0.2,2.6-0.6,4.1-1.3
			c1.5-0.6,3-2,3.8-3.1c0.3-0.5,0.6-1,0.6-1.5c0-0.4-0.1-1-0.5-1.8L384,73.7H397.2z M435.2,107.8c-9.7,0-17.2-6.3-17.2-17.2
			c0-10.7,6.8-17.7,17.9-17.7c10.2,0,16.9,7.1,16.9,17.1C452.7,102.2,444.3,107.8,435.2,107.8L435.2,107.8z M435.5,99.2
			c3.2,0,4.9-3.5,4.9-8.8c0-4.6-1.5-8.8-4.9-8.8c-4,0-5.3,4.4-5.3,8.8C430.3,95.4,431.9,99.2,435.5,99.2L435.5,99.2z M455.9,85.1
			c0-4.5-0.1-8.3-0.3-11.4h10.3l0.5,4.3h0.2c1.2-1.8,4.4-5,9.8-5c7.6,0,11.7,5.3,11.7,14.5v19.7h-11.9V88.9c0-3.9-1.3-6.1-4.2-6.1
			c-2.3,0-3.4,1.6-3.9,2.9c-0.3,0.6-0.3,1.6-0.3,2.4v19h-11.9V85.1z M503.8,61.3h11.9v35.5h17.1v10.3h-29V61.3z M564.8,98.9
			c0,3.3,0.2,6.5,0.5,8.2h-10.7l-0.6-2.9h-0.3c-2.2,2.6-5.5,3.7-9,3.7c-6.7,0-10.7-5-10.7-10.5c0-9,7.8-13,18.9-13V84
			c0-1.4-1-2.9-5.3-2.9c-3.4,0-7,1.2-9.2,2.4l-2-7.7c2-1.2,6.7-3.1,13.4-3.1c11.1,0,15,6.4,15,14.7V98.9z M553.3,91.8
			c-4.9,0-7.6,1.4-7.6,4.3c0,2.1,1.3,3.2,3.4,3.2c1.7,0,3.5-1.2,4.1-3.1c0.1-0.5,0.1-1.2,0.1-1.8V91.8z M569.5,58.8h11.9v18.3h0.1
			c1.8-2.5,5.1-4.1,9.2-4.1c7.6,0,13.3,6.5,13.2,16.8c0,12.1-7.4,18.1-14.9,18.1c-3.4,0-7.1-1.3-9.2-5h-0.1l-0.5,4.3h-10.1
			c0.1-2.2,0.3-6.5,0.3-10.5V58.8z M581.5,92.5c0,0.6,0.1,1.2,0.1,1.7c0.5,2.2,2.3,4,4.7,4c3.5,0,5.7-2.7,5.7-8
			c0-4.6-1.8-7.9-5.7-7.9c-2.3,0-4.3,1.8-4.7,4.1c-0.1,0.5-0.1,1.1-0.1,1.6V92.5z M607.6,96.8c1.8,1.2,6.1,2.5,9,2.5
			c2.6,0,3.6-0.5,3.6-1.8c0-1.2-0.7-1.7-4.2-2.9c-7.2-2.3-9.6-6.3-9.6-10.2c0-6.7,5.5-11.5,14.1-11.5c4,0,7.5,1,9.6,1.9l-1.9,8.3
			c-1.5-0.7-4.5-1.8-7.2-1.8c-2,0-3.2,0.5-3.2,1.9c0,1.1,1.1,1.8,4.9,3.1c6.4,2.1,8.8,5.6,8.9,10.3c0,6.4-4.8,11.2-14.8,11.2
			c-4.5,0-8.6-1-11.1-2.4L607.6,96.8z"/>
	</defs>
	<use xlink:href="#SVGID_1_"  style="overflow:visible;fill:#FFFFFF;"/>
	<clipPath id="SVGID_2_">
		<use xlink:href="#SVGID_1_"  style="overflow:visible;"/>
	</clipPath>
	<g class="st0">
		<defs>
			<rect id="SVGID_3_" x="-845" y="16.3" width="720" height="318"/>
		</defs>
		<clipPath id="SVGID_4_">
			<use xlink:href="#SVGID_3_"  style="overflow:visible;"/>
		</clipPath>
		<g style="clip-path:url(#SVGID_4_);">
			
				<image style="overflow:visible;" width="3000" height="1325" xlink:href="363F114D.jpg"  transform="matrix(0.24 0 0 0.24 -845 16.3334)">
			</image>
		</g>
	</g>
</g>
<g>
	<path class="st1" d="M119.6,24.6c-5.2-5.2-11.4-7.7-18.6-7.7H44.7c-7.4,0-13.6,2.5-18.7,7.7h0c-5.1,5.1-7.7,11.3-7.7,18.5v56.3
		c0,7.2,2.6,13.4,7.7,18.5c5.1,5.1,11.3,7.7,18.5,7.7h56.4c7.2-0.1,13.4-2.7,18.5-7.7v0c5.1-5.1,7.7-11.3,7.7-18.5V43.1
		C127.3,35.8,124.7,29.6,119.6,24.6 M109.5,34.6c2.3,2.3,3.5,5.2,3.5,8.5v56.3c0,3.3-1.2,6.1-3.5,8.4v0c-0.4,0.4-0.7,0.7-1.1,1
		c-2.1,1.7-4.6,2.5-7.4,2.6H44.7c-2.9,0-5.4-0.9-7.5-2.6c-0.4-0.3-0.7-0.6-1-1c-2.4-2.3-3.5-5.2-3.5-8.4V43.1c0-3.3,1.1-6.2,3.5-8.5
		c2.3-2.4,5.2-3.5,8.5-3.5H101C104.3,31.1,107.2,32.3,109.5,34.6"/>
	<path class="st1" d="M51.1,93.4h-6.2c-0.3,0-0.6,0-0.8,0.2c-0.2,0.1-0.4,0.2-0.5,0.4c-0.4,0.4-0.5,0.8-0.5,1.3v10.4
		c0,0.5,0.1,1,0.5,1.3c0.3,0.4,0.7,0.5,1.2,0.6H49v-0.1h52.3v0c0.3-0.1,0.6-0.2,0.9-0.5c0.3-0.3,0.5-0.8,0.5-1.3V95.2
		c0-0.5-0.2-1-0.5-1.3c-0.2-0.3-0.6-0.5-0.9-0.5v0h-6.7L80.1,43.1H65.8L51.1,93.4z"/>
</g>
</svg>
