<svg width="30" height="30" viewBox="0 0 30 30" fill="none" xmlns="http://www.w3.org/2000/svg">
<path fill-rule="evenodd" clip-rule="evenodd" d="M29.1899 3.03823C29.7756 2.45244 29.7756 1.50269 29.1899 0.916907C28.6041 0.331121 27.6543 0.331121 27.0685 0.916907L15.0765 12.9089L2.99628 0.828651C2.4105 0.242865 1.46075 0.242865 0.874962 0.828651C0.289176 1.41444 0.289176 2.36419 0.874962 2.94997L12.9552 15.0302L0.905294 27.0801C0.319509 27.6659 0.319509 28.6157 0.905294 29.2015C1.49108 29.7873 2.44083 29.7873 3.02661 29.2015L15.0765 17.1515L27.0382 29.1132C27.624 29.699 28.5737 29.699 29.1595 29.1132C29.7453 28.5274 29.7453 27.5777 29.1595 26.9919L17.1979 15.0302L29.1899 3.03823Z" fill="black"/>
</svg>
