<svg width="61" height="60" viewBox="0 0 61 60" fill="#fff" xmlns="http://www.w3.org/2000/svg">
<path fill-rule="evenodd" clip-rule="evenodd" d="M45.1899 18.0382C45.7756 17.4524 45.7756 16.5027 45.1899 15.9169C44.6041 15.3311 43.6543 15.3311 43.0685 15.9169L31.0765 27.9089L18.9963 15.8287C18.4105 15.2429 17.4607 15.2429 16.875 15.8287C16.2892 16.4144 16.2892 17.3642 16.875 17.95L28.9552 30.0302L16.9053 42.0801C16.3195 42.6659 16.3195 43.6157 16.9053 44.2015C17.4911 44.7873 18.4408 44.7873 19.0266 44.2015L31.0765 32.1515L43.0382 44.1132C43.624 44.699 44.5737 44.699 45.1595 44.1132C45.7453 43.5274 45.7453 42.5777 45.1595 41.9919L33.1979 30.0302L45.1899 18.0382Z" fill="white"/>
</svg>
