<svg id="Layer_1" data-name="Layer 1" xmlns="http://www.w3.org/2000/svg" viewBox="0 0 834.28 276.44"><defs><style>.cls-1{fill:#231f20;}.cls-2{fill:#f6b918;}.cls-3{fill:#20b24b;}.cls-4{fill:#f57e20;}.cls-5{fill:#00aeef;}.cls-6{fill:#ed1c24;}</style></defs><title>pietential</title><path d="M710.37,111.09a66.22,66.22,0,0,1,18.24,2.78c.23-14.56-2.54-20.32-14.32-20.32-10.62,0-21,2.76-25.86,4.15-2.76.69-4.39-1.15-5.08-3.69l-1.85-8.54a4.15,4.15,0,0,1,3-5.31c1.61-.7,14.78-5.31,31.86-5.31,29.55,0,32.33,18,32.33,41.1v49.17a4.55,4.55,0,0,1-4.39,4.39h-6.47c-2.07,0-3-.92-3.92-3.23L731.61,160c-5.08,4.85-14.09,11.78-28.4,11.78-17.32,0-29.79-11.78-29.79-30.94C673.42,124,686.81,111.09,710.37,111.09Zm-2.77,44.33c9.23,0,18-6.92,20.78-11.54V129.1c-1.39-.92-7.86-3.69-16.17-3.69-11.08,0-18.7,5.77-18.7,15.24C693.51,149,699.05,155.42,707.6,155.42Z"/><path class="cls-1" d="M164.23,81.83a4.46,4.46,0,0,1,4.31-4.32h13a4.47,4.47,0,0,1,4.32,4.32v82.23a4.47,4.47,0,0,1-4.32,4.31h-13a4.46,4.46,0,0,1-4.31-4.31Z"/><path class="cls-1" d="M245.09,75.24c23.62,0,41.8,17.72,41.8,42a54.78,54.78,0,0,1-.46,6.13,4.18,4.18,0,0,1-4.09,3.87H220.56a26.3,26.3,0,0,0,26.12,24.3c8.18,0,15.67-3.63,20.22-6.59,2.72-1.59,4.31-2.49,6.13-.22l6.36,8.63c1.59,1.82,2.27,3.64-.45,5.91-6.59,5.67-18.4,11.35-33.62,11.35-27.49,0-45.66-21.58-45.66-47.7C199.66,97.27,217.83,75.24,245.09,75.24ZM265.76,113c-.68-10.91-9.77-20.22-20.9-20.22A23,23,0,0,0,221.69,113Z"/><path class="cls-1" d="M307,96.36h-9.54a4.3,4.3,0,0,1-4.31-4.31V81.83a4.17,4.17,0,0,1,4.31-4.32H307V52.29A4.47,4.47,0,0,1,311.33,48l12.95-.23a4.27,4.27,0,0,1,4.08,4.32V77.51h23.18a4.18,4.18,0,0,1,4.31,4.32V92.05a4.31,4.31,0,0,1-4.31,4.31H328.36v45c0,7.72,3,9.09,7.27,9.09,4.78,0,11.13-2.73,13.86-4.09,2.95-1.37,4.32,0,5.22,2l4.09,10c1.14,2.5.23,4.31-2,5.45-2.27,1.36-15.68,6.81-26.58,6.81-17.94,0-23.17-10.9-23.17-27Z"/><path class="cls-1" d="M409.45,75.24c23.63,0,41.8,17.72,41.8,42a57.25,57.25,0,0,1-.45,6.13,4.18,4.18,0,0,1-4.09,3.87H384.92a26.31,26.31,0,0,0,26.13,24.3c8.17,0,15.67-3.63,20.21-6.59,2.73-1.59,4.32-2.49,6.14-.22l6.36,8.63c1.58,1.82,2.27,3.64-.46,5.91-6.59,5.67-18.4,11.35-33.62,11.35-27.48,0-45.66-21.58-45.66-47.7C364,97.27,382.2,75.24,409.45,75.24ZM430.13,113c-.69-10.91-9.77-20.22-20.9-20.22A23,23,0,0,0,386.06,113Z"/><path class="cls-1" d="M465.47,81.83a4.46,4.46,0,0,1,4.32-4.32h6.58A3.69,3.69,0,0,1,480,80.23L482.73,88c1.59-1.82,13.63-12.72,31.81-12.72,27.71,0,37.93,19.53,37.93,43.16v45.66a4.46,4.46,0,0,1-4.32,4.31H535.21a4.31,4.31,0,0,1-4.32-4.31V117.49C530.89,103,523.85,95,512,95c-14.31,0-24.08,10.45-25.22,13.63v55.43c0,2.95-1.36,4.31-5.22,4.31H469.79a4.46,4.46,0,0,1-4.32-4.31Z"/><path class="cls-1" d="M573.18,96.36h-9.54a4.31,4.31,0,0,1-4.32-4.31V81.83a4.18,4.18,0,0,1,4.32-4.32h9.54V52.29A4.46,4.46,0,0,1,577.49,48l13-.23a4.28,4.28,0,0,1,4.09,4.32V77.51H617.7A4.17,4.17,0,0,1,622,81.83V92.05a4.3,4.3,0,0,1-4.31,4.31H594.53v45c0,7.72,3,9.09,7.27,9.09,4.77,0,11.13-2.73,13.86-4.09,3-1.37,4.31,0,5.22,2l4.09,10c1.13,2.5.23,4.31-2,5.45-2.28,1.36-15.68,6.81-26.58,6.81-18,0-23.17-10.9-23.17-27Z"/><path class="cls-1" d="M637.58,81.83a4.47,4.47,0,0,1,4.32-4.32h13a4.46,4.46,0,0,1,4.31,4.32v82.23a4.46,4.46,0,0,1-4.31,4.31h-13a4.47,4.47,0,0,1-4.32-4.31Z"/><path class="cls-1" d="M764.34,50.53a4.48,4.48,0,0,1,4.32-4.32h13a4.47,4.47,0,0,1,4.31,4.32V164.06a4.46,4.46,0,0,1-4.31,4.31h-13a4.47,4.47,0,0,1-4.32-4.31Z"/><path class="cls-2" d="M101,98.71l0,22.34a1.26,1.26,0,0,0,1.63,1.21l21.22-6.61a1.26,1.26,0,0,0,.78-1.72,27.73,27.73,0,0,0-22.24-16.47A1.27,1.27,0,0,0,101,98.71Z"/><path class="cls-3" d="M103,127.18,116,145.45a1.27,1.27,0,0,0,1.88.21,27.61,27.61,0,0,0,8.58-26.33,1.28,1.28,0,0,0-1.64-1l-21.11,6.89A1.25,1.25,0,0,0,103,127.18Z"/><path class="cls-4" d="M98.2,98.69a1.27,1.27,0,0,0-1.39-1.28A27.51,27.51,0,0,0,76.9,108.59,27.18,27.18,0,0,0,74,113.52a1.26,1.26,0,0,0,.76,1.74l21.49,7A1.26,1.26,0,0,0,97.92,121Z"/><path class="cls-5" d="M113.66,146.8l-13.2-18.13a1.27,1.27,0,0,0-2,0L84.91,146.79a1.28,1.28,0,0,0,.39,1.86,27.91,27.91,0,0,0,28,0A1.27,1.27,0,0,0,113.66,146.8Z"/><path class="cls-6" d="M82.61,145.48,95.9,127.14a1.26,1.26,0,0,0-.62-1.93L73.86,118a1.27,1.27,0,0,0-1.64.93,27.91,27.91,0,0,0,8.51,26.79A1.28,1.28,0,0,0,82.61,145.48Z"/><path class="cls-1" d="M99.28,72.51a52.4,52.4,0,0,0-52.4,52.39c0,1.58.09,3.14.22,4.68v94.77c0,1.65,2.13,3.14,4.48,3.14H65c2.35,0,4.48-1.49,4.48-3.14V168A52.39,52.39,0,1,0,99.28,72.51Zm0,84.3a31.91,31.91,0,1,1,31.9-31.91A31.91,31.91,0,0,1,99.28,156.81Z"/><path class="cls-1" d="M164.06,209.78a.43.43,0,0,1,.42-.64h3.31a.49.49,0,0,1,.43.27l4.11,9.09h.14l4.11-9.09a.49.49,0,0,1,.43-.27h3.31a.43.43,0,0,1,.42.64l-7.82,16.76a.47.47,0,0,1-.42.28h-.25a.47.47,0,0,1-.42-.28Z"/><path class="cls-1" d="M182.78,209.61a.48.48,0,0,1,.47-.47h3a.48.48,0,0,1,.47.47v16.48a.49.49,0,0,1-.47.48h-3a.49.49,0,0,1-.47-.48Z"/><path class="cls-1" d="M190,224.2l1.17-2.07A.66.66,0,0,1,192,222a7.42,7.42,0,0,0,3.53,1.37,1.56,1.56,0,0,0,1.72-1.49c0-1.05-.87-1.84-2.57-2.51-2.14-.85-4.83-2.52-4.83-5.51,0-2.46,1.92-5,5.76-5a9.34,9.34,0,0,1,5.33,1.86.64.64,0,0,1,.14.8l-1.27,1.92c-.17.27-.62.5-.84.32s-2-1.49-3.56-1.49a1.44,1.44,0,0,0-1.57,1.27c0,.92.75,1.62,2.71,2.41s5,2.29,5,5.68c0,2.57-2.21,5.16-5.87,5.16a8,8,0,0,1-5.61-1.92C189.87,224.65,189.8,224.55,190,224.2Z"/><path class="cls-1" d="M204.39,209.61a.48.48,0,0,1,.47-.47h3.06a.47.47,0,0,1,.48.47v10.08a3.09,3.09,0,1,0,6.17,0V209.61a.47.47,0,0,1,.48-.47h3.06a.48.48,0,0,1,.47.47v10.28a7.1,7.1,0,0,1-14.19,0Z"/><path class="cls-1" d="M220.05,225.92l7.79-16.76a.49.49,0,0,1,.42-.27h.25a.51.51,0,0,1,.43.27l7.79,16.76a.44.44,0,0,1-.42.65h-2.77c-.45,0-.64-.15-.87-.63l-.9-2H225l-.9,2a.91.91,0,0,1-.89.6h-2.74A.44.44,0,0,1,220.05,225.92Zm10.23-5.33-1.89-4.11h0l-1.86,4.11Z"/><path class="cls-1" d="M238.77,209.61a.47.47,0,0,1,.47-.47h3a.49.49,0,0,1,.48.47v13.3h5.92a.47.47,0,0,1,.48.47v2.71a.48.48,0,0,1-.48.48h-9.36a.48.48,0,0,1-.47-.48Z"/><path class="cls-1" d="M251.49,209.61a.48.48,0,0,1,.47-.47h3a.48.48,0,0,1,.47.47v16.48a.49.49,0,0,1-.47.48h-3a.49.49,0,0,1-.47-.48Z"/><path class="cls-1" d="M258.13,225.65l6.63-12.8v0h-5.43a.49.49,0,0,1-.47-.48v-2.71a.48.48,0,0,1,.47-.47h10.58a.49.49,0,0,1,.48.47v.32L264,222.86v0h5.42a.47.47,0,0,1,.48.47v2.71a.48.48,0,0,1-.48.48h-10.8a.5.5,0,0,1-.48-.48Z"/><path class="cls-1" d="M273.2,209.61a.47.47,0,0,1,.47-.47H284a.47.47,0,0,1,.47.47v2.71a.48.48,0,0,1-.47.48h-6.9v3.08h5.68a.49.49,0,0,1,.47.48v2.71a.46.46,0,0,1-.47.47h-5.68v3.37H284a.47.47,0,0,1,.47.47v2.71a.48.48,0,0,1-.47.48H273.67a.48.48,0,0,1-.47-.48Z"/><path class="cls-1" d="M293.29,209.61a.48.48,0,0,1,.47-.47h3a.48.48,0,0,1,.47.47v16.48a.49.49,0,0,1-.47.48h-3a.49.49,0,0,1-.47-.48Z"/><path class="cls-1" d="M303.74,212.8h-3.56a.48.48,0,0,1-.47-.48v-2.71a.47.47,0,0,1,.47-.47h11.06a.47.47,0,0,1,.47.47v2.71a.48.48,0,0,1-.47.48h-3.56v13.29a.5.5,0,0,1-.48.48h-3a.5.5,0,0,1-.48-.48Z"/><path class="cls-1" d="M319.05,218a3.56,3.56,0,1,1,3.51,3.51A3.61,3.61,0,0,1,319.05,218Z"/><path class="cls-1" d="M333.07,225.92l7.79-16.76a.51.51,0,0,1,.42-.27h.25a.51.51,0,0,1,.43.27l7.79,16.76a.44.44,0,0,1-.42.65h-2.77c-.44,0-.64-.15-.87-.63l-.89-2H338l-.89,2a.94.94,0,0,1-.9.6h-2.74A.44.44,0,0,1,333.07,225.92Zm10.23-5.33-1.89-4.11h0l-1.86,4.11Z"/><path class="cls-1" d="M351.76,209.33a.47.47,0,0,1,.48-.44h.62l9.93,9.56h0v-8.84a.47.47,0,0,1,.47-.47h3a.48.48,0,0,1,.47.47v16.76a.47.47,0,0,1-.47.45h-.4a.75.75,0,0,1-.32-.13l-9.84-9.88h0v9.28a.48.48,0,0,1-.48.48h-3a.49.49,0,0,1-.47-.48Z"/><path class="cls-1" d="M368.79,225.92l7.79-16.76a.51.51,0,0,1,.43-.27h.25a.49.49,0,0,1,.42.27l7.79,16.76a.44.44,0,0,1-.42.65h-2.76c-.45,0-.65-.15-.87-.63l-.9-2h-6.77l-.9,2a.94.94,0,0,1-.9.6h-2.74A.44.44,0,0,1,368.79,225.92ZM379,220.59l-1.9-4.11h0l-1.87,4.11Z"/><path class="cls-1" d="M387.51,209.61a.47.47,0,0,1,.48-.47h3a.48.48,0,0,1,.47.47v13.3h5.93a.47.47,0,0,1,.47.47v2.71a.48.48,0,0,1-.47.48H388a.48.48,0,0,1-.48-.48Z"/><path class="cls-1" d="M402.25,218.17l-5.5-8.31a.46.46,0,0,1,.4-.72h3.23a.49.49,0,0,1,.4.22l3.46,5.1,3.46-5.1a.47.47,0,0,1,.4-.22h3.24a.46.46,0,0,1,.4.72l-5.58,8.29v7.94a.49.49,0,0,1-.47.48h-3a.48.48,0,0,1-.47-.48Z"/><path class="cls-1" d="M412.16,225.65l6.62-12.8v0h-5.43a.49.49,0,0,1-.47-.48v-2.71a.48.48,0,0,1,.47-.47h10.59a.49.49,0,0,1,.47.47v.32L418,222.86v0h5.43a.47.47,0,0,1,.47.47v2.71a.48.48,0,0,1-.47.48H412.63a.49.49,0,0,1-.47-.48Z"/><path class="cls-1" d="M427.22,209.61a.47.47,0,0,1,.47-.47H438a.46.46,0,0,1,.47.47v2.71a.47.47,0,0,1-.47.48h-6.9v3.08h5.68a.49.49,0,0,1,.47.48v2.71a.46.46,0,0,1-.47.47H431.1v3.37H438a.46.46,0,0,1,.47.47v2.71a.47.47,0,0,1-.47.48H427.69a.48.48,0,0,1-.47-.48Z"/><path class="cls-1" d="M447.31,209.61a.48.48,0,0,1,.47-.47h3a.48.48,0,0,1,.47.47v16.48a.49.49,0,0,1-.47.48h-3a.49.49,0,0,1-.47-.48Z"/><path class="cls-1" d="M457.77,212.8H454.2a.48.48,0,0,1-.47-.48v-2.71a.47.47,0,0,1,.47-.47h11.06a.46.46,0,0,1,.47.47v2.71a.47.47,0,0,1-.47.48H461.7v13.29a.49.49,0,0,1-.47.48h-3a.49.49,0,0,1-.47-.48Z"/><path class="cls-1" d="M473.07,218a3.61,3.61,0,0,1,3.51-3.61,3.56,3.56,0,1,1,0,7.12A3.57,3.57,0,0,1,473.07,218Z"/><path class="cls-1" d="M489.33,209.61a.47.47,0,0,1,.47-.47h7.45A5.32,5.32,0,0,1,499,219.52l3.42,6.32a.48.48,0,0,1-.43.73h-3.31a.46.46,0,0,1-.4-.23l-3.31-6.6h-1.72v6.35a.49.49,0,0,1-.47.48h-3a.48.48,0,0,1-.47-.48Zm7.6,7a2,2,0,0,0,1.89-2,1.9,1.9,0,0,0-1.89-1.89h-3.69v3.88Z"/><path class="cls-1" d="M506,209.61a.47.47,0,0,1,.47-.47h10.31a.47.47,0,0,1,.48.47v2.71a.48.48,0,0,1-.48.48H509.9v3.08h5.67a.5.5,0,0,1,.48.48v2.71a.47.47,0,0,1-.48.47H509.9v3.37h6.89a.47.47,0,0,1,.48.47v2.71a.48.48,0,0,1-.48.48H506.48a.48.48,0,0,1-.47-.48Z"/><path class="cls-1" d="M518.36,225.92l7.79-16.76a.51.51,0,0,1,.43-.27h.24a.51.51,0,0,1,.43.27L535,225.92a.44.44,0,0,1-.42.65h-2.77c-.44,0-.64-.15-.87-.63l-.89-2h-6.78l-.89,2a.94.94,0,0,1-.9.6h-2.74A.44.44,0,0,1,518.36,225.92Zm10.23-5.33-1.89-4.11h0l-1.86,4.11Z"/><path class="cls-1" d="M537.08,209.61a.47.47,0,0,1,.47-.47h3a.49.49,0,0,1,.47.47v13.3h5.92a.47.47,0,0,1,.48.47v2.71a.48.48,0,0,1-.48.48h-9.36a.48.48,0,0,1-.47-.48Z"/><path class="cls-1" d="M549.8,209.61a.48.48,0,0,1,.47-.47h3a.48.48,0,0,1,.47.47v16.48a.49.49,0,0,1-.47.48h-3a.49.49,0,0,1-.47-.48Z"/><path class="cls-1" d="M556.45,225.65l6.62-12.8v0h-5.43a.49.49,0,0,1-.47-.48v-2.71a.48.48,0,0,1,.47-.47h10.58a.49.49,0,0,1,.48.47v.32l-6.4,12.93v0h5.43a.47.47,0,0,1,.47.47v2.71a.48.48,0,0,1-.47.48H556.92a.49.49,0,0,1-.47-.48Z"/><path class="cls-1" d="M571.51,209.61a.47.47,0,0,1,.47-.47h10.31a.47.47,0,0,1,.47.47v2.71a.48.48,0,0,1-.47.48h-6.9v3.08h5.68a.49.49,0,0,1,.47.48v2.71a.46.46,0,0,1-.47.47h-5.68v3.37h6.9a.47.47,0,0,1,.47.47v2.71a.48.48,0,0,1-.47.48H572a.48.48,0,0,1-.47-.48Z"/><path class="cls-1" d="M591.6,209.61a.48.48,0,0,1,.47-.47h3a.48.48,0,0,1,.47.47v16.48a.49.49,0,0,1-.47.48h-3a.49.49,0,0,1-.47-.48Z"/><path class="cls-1" d="M602.05,212.8h-3.56a.48.48,0,0,1-.47-.48v-2.71a.47.47,0,0,1,.47-.47h11.06a.47.47,0,0,1,.47.47v2.71a.48.48,0,0,1-.47.48H606v13.29a.5.5,0,0,1-.48.48h-3a.5.5,0,0,1-.48-.48Z"/><path class="cls-1" d="M617.36,218a3.61,3.61,0,0,1,3.51-3.61,3.56,3.56,0,1,1,0,7.12A3.57,3.57,0,0,1,617.36,218Z"/><path class="cls-1" d="M631.38,225.92l7.79-16.76a.51.51,0,0,1,.43-.27h.25a.51.51,0,0,1,.42.27l7.79,16.76a.44.44,0,0,1-.42.65h-2.76c-.45,0-.65-.15-.88-.63l-.89-2h-6.78l-.89,2a.94.94,0,0,1-.9.6H631.8A.44.44,0,0,1,631.38,225.92Zm10.23-5.33-1.89-4.11h0l-1.87,4.11Z"/><path class="cls-1" d="M657.67,208.89a8.4,8.4,0,0,1,6,2.31.47.47,0,0,1,0,.7l-1.94,2a.44.44,0,0,1-.62,0,5.06,5.06,0,0,0-3.37-1.27,5.09,5.09,0,0,0,0,10.18,5.29,5.29,0,0,0,3.34-1.19.49.49,0,0,1,.64,0l2,2.07a.49.49,0,0,1,0,.67,8.55,8.55,0,0,1-6.05,2.42,9,9,0,1,1,0-17.93Z"/><path class="cls-1" d="M669,212.8h-3.56a.48.48,0,0,1-.48-.48v-2.71a.47.47,0,0,1,.48-.47h11.05a.46.46,0,0,1,.47.47v2.71a.47.47,0,0,1-.47.48h-3.56v13.29a.49.49,0,0,1-.47.48h-3a.49.49,0,0,1-.47-.48Z"/><path class="cls-1" d="M679.15,209.61a.49.49,0,0,1,.47-.47h3.07a.47.47,0,0,1,.47.47v10.08a3.09,3.09,0,1,0,6.18,0V209.61a.47.47,0,0,1,.47-.47h3.06a.49.49,0,0,1,.48.47v10.28a7.1,7.1,0,0,1-14.2,0Z"/><path class="cls-1" d="M694.81,225.92l7.79-16.76a.51.51,0,0,1,.43-.27h.25a.49.49,0,0,1,.42.27l7.8,16.76a.45.45,0,0,1-.43.65h-2.76c-.45,0-.65-.15-.87-.63l-.9-2h-6.77l-.9,2a.93.93,0,0,1-.9.6h-2.74A.44.44,0,0,1,694.81,225.92Zm10.24-5.33-1.9-4.11h0l-1.87,4.11Z"/><path class="cls-1" d="M713.53,209.61a.47.47,0,0,1,.47-.47h3a.48.48,0,0,1,.47.47v13.3h5.93a.47.47,0,0,1,.47.47v2.71a.48.48,0,0,1-.47.48H714a.48.48,0,0,1-.47-.48Z"/><path class="cls-1" d="M726.25,209.61a.49.49,0,0,1,.48-.47h3a.49.49,0,0,1,.48.47v16.48a.5.5,0,0,1-.48.48h-3a.5.5,0,0,1-.48-.48Z"/><path class="cls-1" d="M732.9,225.65l6.62-12.8v0h-5.43a.49.49,0,0,1-.47-.48v-2.71a.48.48,0,0,1,.47-.47h10.59a.48.48,0,0,1,.47.47v.32l-6.4,12.93v0h5.43a.47.47,0,0,1,.47.47v2.71a.48.48,0,0,1-.47.48H733.37a.49.49,0,0,1-.47-.48Z"/><path class="cls-1" d="M748,209.61a.47.47,0,0,1,.47-.47h10.31a.47.47,0,0,1,.48.47v2.71a.48.48,0,0,1-.48.48h-6.89v3.08h5.67a.5.5,0,0,1,.48.48v2.71a.47.47,0,0,1-.48.47h-5.67v3.37h6.89a.47.47,0,0,1,.48.47v2.71a.48.48,0,0,1-.48.48H748.43a.48.48,0,0,1-.47-.48Z"/><path class="cls-1" d="M768.05,209.61a.48.48,0,0,1,.47-.47h3a.49.49,0,0,1,.48.47v16.48a.5.5,0,0,1-.48.48h-3a.49.49,0,0,1-.47-.48Z"/><path class="cls-1" d="M778.51,212.8H775a.48.48,0,0,1-.48-.48v-2.71a.47.47,0,0,1,.48-.47h11a.47.47,0,0,1,.48.47v2.71a.48.48,0,0,1-.48.48h-3.56v13.29a.49.49,0,0,1-.47.48h-3a.49.49,0,0,1-.47-.48Z"/></svg>