<?xml version="1.0" encoding="iso-8859-1"?>
<!-- Generator: Adobe Illustrator 19.0.0, SVG Export Plug-In . SVG Version: 6.00 Build 0)  -->
<svg version="1.1" id="Capa_1" xmlns="http://www.w3.org/2000/svg" xmlns:xlink="http://www.w3.org/1999/xlink" x="0px" y="0px"
	 viewBox="0 0 509.173 509.173" style="enable-background:new 0 0 509.173 509.173;" xml:space="preserve">
<g>
	<g>
		<g>
			<path d="M416,126.586c29.419,0,53.333-23.936,53.333-53.333S445.397,19.92,416,19.92s-53.333,23.936-53.333,53.333
				S386.603,126.586,416,126.586z M416,41.253c17.664,0,32,14.357,32,32c0,17.643-14.357,32-32,32s-32-14.357-32-32
				C384,55.61,398.357,41.253,416,41.253z"/>
			<path d="M416,211.92c-5.888,0-10.667,4.779-10.667,10.667v42.667c0,5.888,4.779,10.667,10.667,10.667
				c5.909,0,10.667-4.779,10.667-10.667v-42.667C426.667,216.698,421.888,211.92,416,211.92z"/>
			<path d="M96,275.92H10.667C4.779,275.92,0,280.698,0,286.586v192c0,5.888,4.779,10.667,10.667,10.667H96
				c5.909,0,10.667-4.779,10.667-10.667v-192C106.667,280.698,101.888,275.92,96,275.92z M85.333,467.92h-64V297.253h64V467.92z"/>
			<path d="M508.928,303.952L495.275,194.64c-3.328-26.645-26.091-46.72-52.928-46.72h-52.672c-26.837,0-49.6,20.075-52.949,46.72
				l-13.653,109.312c-1.131,9.109,1.685,18.261,7.765,25.152c5.611,6.357,13.483,10.197,21.888,10.752l9.963,139.499
				c0.405,5.568,5.056,9.899,10.645,9.899h85.333c5.611,0,10.24-4.331,10.645-9.899l9.963-139.499
				c8.405-0.555,16.277-4.395,21.888-10.752C507.243,322.213,510.059,313.061,508.928,303.952z M485.163,314.981
				c-2.048,2.325-4.885,3.605-8,3.605h-7.829c-5.589,0-10.219,4.331-10.624,9.899l-9.963,139.435h-65.472l-9.963-139.435
				c-0.405-5.568-5.056-9.899-10.645-9.899h-7.829c-3.093,0-5.952-1.28-8-3.605c-2.048-2.325-2.965-5.291-2.581-8.384
				l13.653-109.312c2.005-15.979,15.659-28.032,31.765-28.032h15.659v10.667c0,5.888,4.779,10.667,10.667,10.667
				c5.909,0,10.667-4.779,10.667-10.667v-10.667h15.68c16.107,0,29.76,12.053,31.744,28.032l13.653,109.312
				C488.128,309.669,487.211,312.656,485.163,314.981z"/>
			<path d="M266.667,147.92h-85.333c-5.888,0-10.667,4.779-10.667,10.667v320c0,5.888,4.779,10.667,10.667,10.667h85.333
				c5.909,0,10.667-4.779,10.667-10.667v-320C277.333,152.698,272.555,147.92,266.667,147.92z M256,467.92h-64V169.253h64V467.92z"
				/>
		</g>
	</g>
</g>
<g>
</g>
<g>
</g>
<g>
</g>
<g>
</g>
<g>
</g>
<g>
</g>
<g>
</g>
<g>
</g>
<g>
</g>
<g>
</g>
<g>
</g>
<g>
</g>
<g>
</g>
<g>
</g>
<g>
</g>
</svg>
