<svg width="33" height="33" viewBox="0 0 33 33" fill="none" xmlns="http://www.w3.org/2000/svg">
<path d="M6.40258 0.847656C3.16581 0.847656 0.55957 3.45389 0.55957 6.69065V27.0046C0.55957 30.2414 3.16581 32.8476 6.40258 32.8476H17.4126V20.3376H14.1046V15.8336H17.4126V11.9856C17.4126 8.96246 19.3671 6.18665 23.8696 6.18665C25.6926 6.18665 27.0406 6.36166 27.0406 6.36166L26.9346 10.5677C26.9346 10.5677 25.5598 10.5547 24.0596 10.5547C22.4359 10.5547 22.1756 11.3028 22.1756 12.5447V15.8337H27.0636L26.8506 20.3377H22.1756V32.8477H26.7166C29.9533 32.8477 32.5596 30.2414 32.5596 27.0047V6.69068C32.5596 3.45392 29.9533 0.847688 26.7166 0.847688H6.40255L6.40258 0.847656Z" fill="white"/>
</svg>
