<svg width="33" height="33" viewBox="0 0 33 33" fill="none" xmlns="http://www.w3.org/2000/svg">
<path fill-rule="evenodd" clip-rule="evenodd" d="M0.559571 3.52111C0.559571 2.81207 0.841237 2.13207 1.34261 1.6307C1.84398 1.12933 2.52398 0.84766 3.23303 0.84766H29.8832C30.2346 0.847086 30.5826 0.915824 30.9074 1.04994C31.2322 1.18405 31.5273 1.38091 31.7759 1.62924C32.0245 1.87757 32.2217 2.17249 32.3562 2.49713C32.4906 2.82176 32.5598 3.16973 32.5596 3.52111V30.1713C32.56 30.5227 32.491 30.8708 32.3568 31.1956C32.2225 31.5204 32.0255 31.8155 31.777 32.0641C31.5286 32.3127 31.2336 32.5098 30.9089 32.6443C30.5841 32.7787 30.2361 32.8478 29.8847 32.8477H3.23303C2.88182 32.8477 2.53406 32.7785 2.2096 32.644C1.88515 32.5096 1.59037 32.3125 1.34209 32.0641C1.09382 31.8157 0.896926 31.5208 0.762658 31.1963C0.62839 30.8718 0.55938 30.524 0.559571 30.1727V3.52111ZM13.2258 13.0484H17.5588V15.2244C18.1843 13.9735 19.7843 12.8477 22.1887 12.8477C26.7981 12.8477 27.8905 15.3393 27.8905 19.9109V28.3793H23.2258V20.9524C23.2258 18.3487 22.6003 16.8797 21.0119 16.8797C18.8083 16.8797 17.8919 18.4637 17.8919 20.9524V28.3793H13.2258V13.0484ZM5.22575 28.18H9.89193V12.8477H5.22575V28.1786V28.18ZM10.5596 7.84693C10.5684 8.24646 10.4973 8.64371 10.3505 9.01539C10.2037 9.38707 9.98408 9.72567 9.70463 10.0113C9.42519 10.297 9.0915 10.524 8.72314 10.6789C8.35479 10.8339 7.95919 10.9137 7.55957 10.9137C7.15995 10.9137 6.76435 10.8339 6.396 10.6789C6.02765 10.524 5.69395 10.297 5.41451 10.0113C5.13506 9.72567 4.91549 9.38707 4.76868 9.01539C4.62187 8.64371 4.55077 8.24646 4.55957 7.84693C4.57684 7.06272 4.90049 6.31645 5.46122 5.76793C6.02195 5.21941 6.77517 4.91227 7.55957 4.91227C8.34397 4.91227 9.09719 5.21941 9.65792 5.76793C10.2186 6.31645 10.5423 7.06272 10.5596 7.84693Z" fill="white"/>
</svg>
