<svg width="34" height="33" viewBox="0 0 34 33" fill="none" xmlns="http://www.w3.org/2000/svg">
<path d="M33.7903 4.27623V29.4191C33.7903 31.3119 32.1955 32.8477 30.2299 32.8477H12.0123C12.7392 31.6762 13.6739 29.9905 14.0447 28.6119C14.2673 27.7905 15.1796 24.4405 15.1796 24.4405C15.773 25.5334 17.5087 26.4548 19.3557 26.4548C24.8521 26.4548 28.8057 21.5905 28.8057 15.5477C28.8057 9.7548 23.8953 5.41909 17.5755 5.41909C9.71286 5.41909 5.54418 10.4977 5.54418 16.0334C5.54418 18.6048 6.96836 21.8048 9.23814 22.8262C9.58677 22.9834 9.76479 22.9119 9.84638 22.5905C9.90572 22.3477 10.2173 21.1548 10.3508 20.6048C10.3953 20.4262 10.373 20.2762 10.2247 20.1048C9.4755 19.2262 8.86726 17.6119 8.86726 16.1048C8.86726 12.2334 11.9085 8.49051 17.0934 8.49051C21.5662 8.49051 24.7038 11.4262 24.7038 15.6262C24.7038 20.3691 22.2189 23.6548 18.9774 23.6548C17.1898 23.6548 15.8546 22.2334 16.2774 20.4834C16.7892 18.3977 17.7832 16.1477 17.7832 14.6405C17.7832 10.8548 12.1829 11.3762 12.1829 16.4262C12.1829 17.9762 12.7244 19.0334 12.7244 19.0334C10.3953 28.5191 10.0467 28.6405 10.5288 32.7905L10.692 32.8477H4.12001C2.15435 32.8477 0.55957 31.3119 0.55957 29.4191V4.27623C0.55957 2.38337 2.15435 0.847656 4.12001 0.847656H30.2299C32.1955 0.847656 33.7903 2.38337 33.7903 4.27623Z" fill="white"/>
</svg>
