<svg width="33" height="33" viewBox="0 0 33 33" fill="none" xmlns="http://www.w3.org/2000/svg">
<path d="M27.2262 10.8893C26.4485 11.2365 25.6082 11.4727 24.7054 11.5977C25.6498 11.0421 26.2957 10.2296 26.6429 9.16016C25.7401 9.68793 24.8096 10.0421 23.8512 10.2227C23.004 9.30599 21.9415 8.84766 20.6637 8.84766C19.4554 8.84766 18.4242 9.27474 17.57 10.1289C16.7158 10.9831 16.2887 12.0143 16.2887 13.2227C16.2887 13.6254 16.3235 13.9588 16.3929 14.2227C14.6012 14.1254 12.9207 13.674 11.3512 12.8685C9.78179 12.0629 8.44846 10.9865 7.35124 9.63932C6.94846 10.3338 6.74707 11.0699 6.74707 11.8477C6.74707 13.431 7.37901 14.6463 8.6429 15.4935C7.99013 15.4796 7.29568 15.299 6.55957 14.9518V14.9935C6.55957 16.0352 6.90679 16.9622 7.60124 17.7747C8.29568 18.5872 9.14985 19.0907 10.1637 19.2852C9.76096 19.3963 9.40679 19.4518 9.10124 19.4518C8.92068 19.4518 8.64985 19.424 8.28874 19.3685C8.5804 20.2435 9.09776 20.9657 9.84082 21.5352C10.5839 22.1046 11.4276 22.3963 12.3721 22.4102C10.761 23.6602 8.94846 24.2852 6.93457 24.2852C6.57346 24.2852 6.22624 24.2643 5.8929 24.2227C7.94846 25.5282 10.1846 26.181 12.6012 26.181C14.1568 26.181 15.6151 25.9345 16.9762 25.4414C18.3373 24.9484 19.504 24.2886 20.4762 23.4622C21.4485 22.6359 22.2853 21.6845 22.9867 20.6081C23.688 19.5317 24.2089 18.4067 24.5492 17.2331C24.8894 16.0595 25.0596 14.8893 25.0596 13.7227C25.0596 13.4727 25.0526 13.2852 25.0387 13.1602C25.9137 12.5352 26.6429 11.7782 27.2262 10.8893ZM32.5596 6.84766V26.8477C32.5596 28.5004 31.9728 29.9136 30.7992 31.0872C29.6255 32.2609 28.2123 32.8477 26.5596 32.8477H6.55957C4.90679 32.8477 3.4936 32.2609 2.31999 31.0872C1.14638 29.9136 0.55957 28.5004 0.55957 26.8477V6.84766C0.55957 5.19488 1.14638 3.78168 2.31999 2.60807C3.4936 1.43446 4.90679 0.847656 6.55957 0.847656H26.5596C28.2123 0.847656 29.6255 1.43446 30.7992 2.60807C31.9728 3.78168 32.5596 5.19488 32.5596 6.84766Z" fill="white"/>
</svg>
